<svg xmlns="http://www.w3.org/2000/svg" viewBox="0 0 72.61 63.85"><defs><style>.cls-1{fill:#fff;}</style></defs><g id="Capa_3" data-name="Capa 3"><g id="Phone"><path class="cls-1" d="M48,38.62a2.71,2.71,0,0,0-4.1,0c-1,1-1.92,1.9-2.86,2.87a.58.58,0,0,1-.8.14c-.62-.34-1.28-.61-1.87-1a29.43,29.43,0,0,1-7.18-6.54A16.71,16.71,0,0,1,28.57,30a.59.59,0,0,1,.15-.76c1-.92,1.89-1.87,2.84-2.83a2.73,2.73,0,0,0,0-4.2L29.3,19.94c-.77-.77-1.54-1.55-2.32-2.32a2.74,2.74,0,0,0-4.11,0c-1,.95-1.9,1.93-2.88,2.86a4.69,4.69,0,0,0-1.47,3.15,13.37,13.37,0,0,0,1,5.76,34.88,34.88,0,0,0,6.2,10.33,38.35,38.35,0,0,0,12.71,9.94,18.28,18.28,0,0,0,7,2A5.16,5.16,0,0,0,49.94,50c.82-.92,1.75-1.76,2.62-2.64a2.75,2.75,0,0,0,0-4.18Q50.29,40.91,48,38.62Z"/><path class="cls-1" d="M54,32A29.84,29.84,0,0,0,38.18,16.2a1.13,1.13,0,0,0-1.5.65,1.21,1.21,0,0,0,.64,1.55,27.56,27.56,0,0,1,14.6,14.53,1.15,1.15,0,0,0,1,.7,1.1,1.1,0,0,0,.47-.1A1.22,1.22,0,0,0,54,32Z"/><path class="cls-1" d="M36.71,24.75a16.62,16.62,0,0,1,8.85,8.79,1.14,1.14,0,0,0,1,.68,1.11,1.11,0,0,0,.46-.11,1.16,1.16,0,0,0,.56-1.51,18.94,18.94,0,0,0-10.05-10,1.1,1.1,0,0,0-1.45.63A1.16,1.16,0,0,0,36.71,24.75Z"/></g></g></svg>