<svg xmlns="http://www.w3.org/2000/svg" viewBox="0 0 71.36 63.85"><defs><style>.cls-1{fill:#f8fafb;}</style></defs><g id="Capa_3" data-name="Capa 3"><path class="cls-1" d="M49.88,13.94H22.13a5.63,5.63,0,0,0-5.63,5.63V39a5.64,5.64,0,0,0,5.63,5.64H49.88A5.64,5.64,0,0,0,55.51,39V19.57A5.63,5.63,0,0,0,49.88,13.94Zm0,2.69a3,3,0,0,1,.67.08L38.84,30a3.78,3.78,0,0,1-5.67,0L21.46,16.71a2.93,2.93,0,0,1,.67-.08ZM52.82,39a2.94,2.94,0,0,1-2.94,2.94H22.13A2.94,2.94,0,0,1,19.19,39V19.57a2.93,2.93,0,0,1,.22-1.11L31.15,31.77a6.46,6.46,0,0,0,9.71,0L52.6,18.46a2.93,2.93,0,0,1,.22,1.11Z"/></g></svg>